<?xml version="1.0" standalone="no"?>
<!DOCTYPE svg PUBLIC "-//W3C//DTD SVG 20010904//EN"
 "http://www.w3.org/TR/2001/REC-SVG-20010904/DTD/svg10.dtd">
<svg version="1.0" xmlns="http://www.w3.org/2000/svg"
 width="454.000000pt" height="454.000000pt" viewBox="0 0 454.000000 454.000000"
 preserveAspectRatio="xMidYMid meet">
<metadata>
Created by potrace 1.11, written by Peter Selinger 2001-2013
</metadata>
<g transform="translate(0.000000,454.000000) scale(0.100000,-0.100000)"
fill="#000000" stroke="none">
<path d="M310 2197 l0 -2147 1764 0 c1402 0 1765 3 1768 13 2 6 3 80 3 162 l0
150 -25 3 c-19 3 -81 75 -275 324 -137 176 -257 328 -265 337 -8 9 -36 43 -61
77 -25 33 -53 69 -62 80 -55 66 -217 277 -217 283 0 4 30 22 68 40 156 76 273
160 403 290 131 132 227 267 300 421 33 68 86 210 94 249 2 9 8 36 14 61 37
148 48 395 23 520 -7 30 -13 66 -16 80 -21 129 -107 342 -198 490 -109 177
-305 369 -498 487 -146 90 -371 175 -520 198 -158 24 -167 24 -1868 29 l-432
1 0 -2148z m530 653 l0 -1160 -100 0 -100 0 0 1160 0 1160 100 0 100 0 0
-1160z m1664 1108 c247 -189 416 -438 491 -723 27 -103 38 -184 40 -305 5
-248 -50 -461 -176 -690 -63 -115 -237 -310 -349 -392 -88 -65 -104 -69 -40
-11 205 188 341 473 393 823 19 129 15 418 -8 530 -3 14 -8 39 -11 55 -43 254
-198 547 -371 705 -50 45 -61 58 -40 51 15 -6 47 -26 71 -43z m226 -18 c98
-32 254 -112 305 -155 15 -14 31 -25 34 -25 14 0 171 -159 218 -220 213 -278
287 -618 207 -945 -35 -142 -112 -304 -202 -425 -101 -136 -304 -301 -448
-365 -32 -14 -68 -30 -79 -35 -37 -18 -190 -58 -245 -65 -111 -14 -134 -15
-125 -7 6 5 51 35 100 68 124 81 283 242 368 371 165 250 239 504 232 798 -5
235 -55 419 -169 628 -76 140 -212 307 -313 384 -18 14 -33 29 -33 33 0 9 3 8
150 -40z m-1890 -3070 l0 -490 -100 0 -100 0 0 490 0 490 100 0 100 0 0 -490z
m1793 458 c14 -18 112 -144 219 -279 106 -135 223 -284 259 -330 36 -46 109
-139 162 -207 54 -67 97 -125 97 -127 0 -3 -495 -5 -1100 -5 l-1100 0 0 490 0
490 719 0 719 0 25 -32z"/>
</g>
</svg>
